<?xml version="1.0" standalone="no"?><!DOCTYPE svg PUBLIC "-//W3C//DTD SVG 1.1//EN" "http://www.w3.org/Graphics/SVG/1.1/DTD/svg11.dtd"><svg t="1758073352601" class="icon" viewBox="0 0 1024 1024" version="1.1" xmlns="http://www.w3.org/2000/svg" p-id="8653" xmlns:xlink="http://www.w3.org/1999/xlink" width="200" height="200"><path d="M934.956522 0a89.043478 89.043478 0 0 1 89.043478 89.043478v845.913044a89.043478 89.043478 0 0 1-89.043478 89.043478H89.043478a89.043478 89.043478 0 0 1-89.043478-89.043478V89.043478a89.043478 89.043478 0 0 1 89.043478-89.043478h845.913044z m-400.695652 556.521739H267.130435A155.826087 155.826087 0 0 0 111.304348 712.347826v111.304348a44.521739 44.521739 0 0 0 44.521739 44.521739h489.73913a44.521739 44.521739 0 0 0 44.52174-44.521739V712.347826a155.826087 155.826087 0 0 0-155.826087-155.826087zM400.695652 133.565217a178.086957 178.086957 0 1 0 0 356.173913 178.086957 178.086957 0 0 0 0-356.173913z m534.26087 267.130435h-222.608696v89.043478h222.608696V400.695652z m0-133.565217h-222.608696v89.043478h222.608696V267.130435z m0-133.565218h-222.608696v89.043479h222.608696V133.565217z" stroke="#979797" p-id="8654"></path></svg>